<?xml version="1.0" encoding="UTF-8" standalone="no"?>
<!DOCTYPE svg PUBLIC "-//W3C//DTD SVG 1.1//EN" "http://www.w3.org/Graphics/SVG/1.1/DTD/svg11.dtd">
<svg width="100%" height="100%" viewBox="0 0 200 100" version="1.1" xmlns="http://www.w3.org/2000/svg" xmlns:xlink="http://www.w3.org/1999/xlink" xml:space="preserve" xmlns:serif="http://www.serif.com/" style="fill-rule:evenodd;clip-rule:evenodd;stroke-linejoin:round;stroke-miterlimit:2;">
    <g transform="matrix(1.32931,0,0,1.36357,-45.3902,-10.9464)">
        <rect x="34.146" y="16.178" width="113.106" height="6.663" style="fill:rgb(77,179,160);"/>
    </g>
    <g transform="matrix(1.04069,0,0,1.36357,-35.3973,13.634)">
        <rect x="34.146" y="16.178" width="113.106" height="6.663" style="fill:rgb(51,204,177);"/>
    </g>
    <text x="82.308px" y="67.862px" style="font-family:'ArialMT', 'Arial', sans-serif;font-size:11.805px;">Unix/Linux</text>
    <g transform="matrix(1,0,0,1,-35.343,-0.738653)">
        <text x="55.122px" y="88.239px" style="font-family:'ArialMT', 'Arial', sans-serif;font-size:11.805px;">Html/CSS + javascript</text>
    </g>
    <g transform="matrix(0.555622,0,0,1.36357,-18.9721,36.8349)">
        <rect x="34.146" y="16.178" width="113.106" height="6.663" style="fill:rgb(26,230,193);"/>
    </g>
    <g transform="matrix(0.130468,0,0,1.36357,-4.35703,57.0749)">
        <rect x="34.146" y="16.178" width="113.106" height="6.663" style="fill:rgb(13,242,201);"/>
    </g>
    <g transform="matrix(1,0,0,1,-3.85096,-0.770374)">
        <text x="156.572px" y="20.06px" style="font-family:'ArialMT', 'Arial', sans-serif;font-size:12px;">Al alloys</text>
    </g>
    <g transform="matrix(1,0,0,1,62.848,-0.971578)">
        <text x="57.682px" y="44.603px" style="font-family:'ArialMT', 'Arial', sans-serif;font-size:12px;">DFT<tspan x="80.791px 84.125px " y="44.603px 44.603px "> M</tspan>odelling</text>
    </g>
</svg>
